<svg xmlns="http://www.w3.org/2000/svg" width="17.778" height="16" viewBox="0 0 17.778 16">
  <path id="Path_3" data-name="Path 3" d="M15.667,4.056H14.333V3.167A2.669,2.669,0,0,0,11.667.5H2.333A2.224,2.224,0,0,0,.111,2.722V13.833A2.669,2.669,0,0,0,2.778,16.5H15.667a2.224,2.224,0,0,0,2.222-2.222v-8a2.224,2.224,0,0,0-2.222-2.222ZM2.333,1.389h9.333a1.78,1.78,0,0,1,1.778,1.778v.889H2.333a1.333,1.333,0,1,1,0-2.667ZM17,12.056H15.222a1.778,1.778,0,1,1,0-3.556H17Zm0-4.444H15.222a2.667,2.667,0,1,0,0,5.333H17v1.333a1.334,1.334,0,0,1-1.333,1.333H2.778A1.78,1.78,0,0,1,1,13.833V4.5a2.207,2.207,0,0,0,1.333.445H15.667A1.334,1.334,0,0,1,17,6.278Z" transform="translate(-0.111 -0.5)" fill="#fff"/>
</svg>
